<?xml version="1.0" encoding="utf-8"?>
<!-- Generator: Adobe Illustrator 19.0.0, SVG Export Plug-In . SVG Version: 6.00 Build 0)  -->
<svg version="1.1" id="Layer_1" xmlns="http://www.w3.org/2000/svg" xmlns:xlink="http://www.w3.org/1999/xlink" x="0px" y="0px"
	 viewBox="796 -866 1792 1792" style="enable-background:new 796 -866 1792 1792;" xml:space="preserve">
<style type="text/css">
	.st0{fill:#FFFFFF;}
</style>
<path class="st0" d="M1628,94v384c0,53.3-18.7,98.7-56,136s-82.7,56-136,56h-384c-53.3,0-98.7-18.7-136-56s-56-82.7-56-136v-704
	c0-69.3,13.5-135.5,40.5-198.5S964-542,1010-588s100.5-82.5,163.5-109.5S1302.7-738,1372-738h64c17.3,0,32.3,6.3,45,19
	s19,27.7,19,45v128c0,17.3-6.3,32.3-19,45c-12.7,12.7-27.7,19-45,19h-64c-70.7,0-131,25-181,75s-75,110.3-75,181v32
	c0,26.7,9.3,49.3,28,68s41.3,28,68,28h224c53.3,0,98.7,18.7,136,56S1628,40.7,1628,94z M2524,94v384c0,53.3-18.7,98.7-56,136
	s-82.7,56-136,56h-384c-53.3,0-98.7-18.7-136-56c-37.3-37.3-56-82.7-56-136v-704c0-69.3,13.5-135.5,40.5-198.5S1860-542,1906-588
	s100.5-82.5,163.5-109.5S2198.7-738,2268-738h64c17.3,0,32.3,6.3,45,19s19,27.7,19,45v128c0,17.3-6.3,32.3-19,45
	c-12.7,12.7-27.7,19-45,19h-64c-70.7,0-131,25-181,75s-75,110.3-75,181v32c0,26.7,9.3,49.3,28,68c18.7,18.7,41.3,28,68,28h224
	c53.3,0,98.7,18.7,136,56S2524,40.7,2524,94z"/>
</svg>
